<?xml version="1.0" encoding="UTF-8"?><svg id="Calque_1" xmlns="http://www.w3.org/2000/svg" viewBox="0 0 512 512"><defs><style>.cls-1{fill:#d7c2ad;}.cls-1,.cls-2,.cls-3{stroke-width:0px;}.cls-2{fill:#927265;}.cls-3{fill:#444148;}</style></defs><path class="cls-2" d="M257.59.09c141.68,1.73,255.81,117.1,254.4,257.17-1.42,141.51-116.72,255.78-256.94,254.66C113.19,510.8-2.15,394.2.03,254.11,2.24,112.14,117.58-1.62,257.59.09ZM415.1,421.45c58.02-49.41,92.28-148.27,58.92-242.65C438.89,79.36,342.37,17.71,234.54,25.72,134.69,33.13,48.53,111.61,28.65,213.24c-14.63,74.81,21.4,184.37,68.38,207.06.12-2.09.27-4.03.35-5.98,2.31-55.09,29.07-93.44,79.45-115.32,31.6-13.72,65.02-16.54,98.84-13.93,75.1,5.79,138.19,48,139.43,136.38Z"/><path class="cls-1" d="M415.1,421.45c-1.24-88.38-64.33-130.59-139.43-136.38-33.82-2.61-67.24.2-98.84,13.93-50.38,21.88-77.14,60.23-79.45,115.32-.08,1.95-.22,3.89-.35,5.98-46.98-22.69-83.01-132.25-68.38-207.06C48.53,111.61,134.69,33.13,234.54,25.72c107.83-8.01,204.35,53.65,239.49,153.08,33.36,94.38-.91,193.25-58.92,242.65ZM336.47,184.48c-.11-44.75-36.28-80.39-81.26-80.09-44.19.29-79.85,36.31-79.68,80.48.17,44.05,36.15,80.19,80.07,80.44,44.36.25,80.99-36.35,80.88-80.83Z"/><path class="cls-2" d="M336.47,184.48c.11,44.48-36.51,81.08-80.88,80.83-43.92-.25-79.9-36.4-80.07-80.44-.17-44.17,35.49-80.18,79.68-80.48,44.98-.3,81.15,35.34,81.26,80.09Z"/><path class="cls-3" d="M256,25c31.2,0,61.45,6.1,89.91,18.14,27.5,11.63,52.21,28.29,73.43,49.52,21.22,21.22,37.88,45.93,49.52,73.43,12.04,28.46,18.14,58.71,18.14,89.91s-6.1,61.45-18.14,89.91c-11.63,27.5-28.29,52.21-49.52,73.43-21.22,21.22-45.93,37.88-73.43,49.52-28.46,12.04-58.71,18.14-89.91,18.14s-61.45-6.1-89.91-18.14c-27.5-11.63-52.21-28.29-73.43-49.52-21.22-21.22-37.88-45.93-49.52-73.43-12.04-28.46-18.14-58.71-18.14-89.91s6.1-61.45,18.14-89.91c11.63-27.5,28.29-52.21,49.52-73.43,21.22-21.22,45.93-37.88,73.43-49.52,28.46-12.04,58.71-18.14,89.91-18.14M256,0C114.62,0,0,114.62,0,256s114.62,256,256,256,256-114.62,256-256S397.38,0,256,0h0Z"/></svg>