<?xml version="1.0" encoding="UTF-8"?><svg id="Calque_1" xmlns="http://www.w3.org/2000/svg" xmlns:xlink="http://www.w3.org/1999/xlink" viewBox="0 0 1000 1000"><defs><style>.cls-1{fill:url(#Dégradé_sans_nom_18-7);}.cls-1,.cls-2,.cls-3,.cls-4,.cls-5,.cls-6,.cls-7,.cls-8,.cls-9,.cls-10,.cls-11,.cls-12,.cls-13{stroke:#7e6c6a;stroke-linecap:round;stroke-linejoin:round;stroke-width:3px;}.cls-2{fill:url(#Dégradé_sans_nom_18-12);}.cls-3{fill:url(#Dégradé_sans_nom_18-5);}.cls-4{fill:url(#Dégradé_sans_nom_18-3);}.cls-5{fill:url(#Dégradé_sans_nom_18-8);}.cls-6{fill:url(#Dégradé_sans_nom_18-6);}.cls-7{fill:url(#Dégradé_sans_nom_18-11);}.cls-8{fill:url(#Dégradé_sans_nom_18-4);}.cls-9{fill:url(#Dégradé_sans_nom_18-2);}.cls-10{fill:url(#Dégradé_sans_nom_18-13);}.cls-11{fill:url(#Dégradé_sans_nom_18-10);}.cls-14{fill:#4c4559;stroke-width:0px;}.cls-12{fill:url(#Dégradé_sans_nom_18);}.cls-13{fill:url(#Dégradé_sans_nom_18-9);}</style><linearGradient id="Dégradé_sans_nom_18" x1="147.81" y1="257.88" x2="147.81" y2="742.45" gradientUnits="userSpaceOnUse"><stop offset="0" stop-color="#f8b9a2"/><stop offset="1" stop-color="#fbe3c9"/></linearGradient><linearGradient id="Dégradé_sans_nom_18-2" x1="268.28" y1="257.88" x2="268.28" y2="742.45" xlink:href="#Dégradé_sans_nom_18"/><linearGradient id="Dégradé_sans_nom_18-3" x1="391.26" y1="257.88" x2="391.26" y2="742.45" xlink:href="#Dégradé_sans_nom_18"/><linearGradient id="Dégradé_sans_nom_18-4" x1="524.26" y1="257.88" x2="524.26" y2="742.45" xlink:href="#Dégradé_sans_nom_18"/><linearGradient id="Dégradé_sans_nom_18-5" x1="654.23" y1="257.88" x2="654.23" y2="742.45" xlink:href="#Dégradé_sans_nom_18"/><linearGradient id="Dégradé_sans_nom_18-6" x1="774.3" y1="257.88" x2="774.3" y2="742.45" xlink:href="#Dégradé_sans_nom_18"/><linearGradient id="Dégradé_sans_nom_18-7" x1="872.96" y1="257.88" x2="872.96" y2="742.45" xlink:href="#Dégradé_sans_nom_18"/><linearGradient id="Dégradé_sans_nom_18-8" x1="681.26" y1="257.88" x2="681.26" y2="742.45" xlink:href="#Dégradé_sans_nom_18"/><linearGradient id="Dégradé_sans_nom_18-9" x1="624.71" y1="257.88" x2="624.71" y2="742.45" xlink:href="#Dégradé_sans_nom_18"/><linearGradient id="Dégradé_sans_nom_18-10" x1="661.18" y1="257.88" x2="661.18" y2="742.45" xlink:href="#Dégradé_sans_nom_18"/><linearGradient id="Dégradé_sans_nom_18-11" x1="697.65" y1="257.88" x2="697.65" y2="742.45" xlink:href="#Dégradé_sans_nom_18"/><linearGradient id="Dégradé_sans_nom_18-12" x1="424.38" y1="257.88" x2="424.38" y2="742.45" xlink:href="#Dégradé_sans_nom_18"/><linearGradient id="Dégradé_sans_nom_18-13" x1="447.65" y1="257.88" x2="447.65" y2="742.45" xlink:href="#Dégradé_sans_nom_18"/></defs><circle class="cls-14" cx="500" cy="500" r="500"/><g id="ZenChat"><path class="cls-12" d="M192.24,447.77l-61.93,101.94h63.94v23.02h-92.89v-21.21l62.13-101.94h-60.32v-23.02h89.07v21.21Z"/><path class="cls-9" d="M311.91,523.46c0-11.92-1.66-22.11-4.98-30.55s-8.14-14.89-14.47-19.35c-6.33-4.46-13.96-6.68-22.87-6.68-9.45,0-17.54,1.91-24.28,5.73-6.73,3.81-11.86,9.38-15.38,16.68-3.52,7.31-5.28,16.12-5.28,26.45v11.75c0,9.92,1.85,18.39,5.53,25.39,3.69,7,9.01,12.32,15.99,15.93,6.96,3.62,15.38,5.44,25.24,5.44,6.69,0,13.35-1.36,19.95-4.07,6.6-2.72,12.54-6.55,17.85-11.52l-15.68-14.67c-3.09,2.68-6.55,4.76-10.41,6.28-3.85,1.51-7.75,2.26-11.71,2.26-7.78,0-13.81-2.13-18.09-6.39-3.85-3.8-5.96-9.08-6.35-15.84h64.95v-6.84ZM246.92,512.71c.27-7.39,2.24-13.16,5.88-17.34,3.95-4.52,9.55-6.79,16.79-6.79,5.76,0,10.35,2.01,13.78,6.04,3.41,4.02,5.46,9.68,6.13,16.99l.09,1.11h-42.67Z"/><path class="cls-4" d="M434.19,509.39v63.33h-24.02v-63.22c0-6.24-1.67-11.06-5.02-14.48-3.35-3.41-8.11-5.13-14.28-5.13s-10.45,1.6-13.67,4.78c-3.21,3.19-4.82,7.69-4.82,13.53v64.53h-24.02v-104.34h24.02v14.33c2.75-4.56,6.02-8.16,9.8-10.81,4.8-3.35,10.45-5.02,16.94-5.02,11.13,0,19.75,3.69,25.89,11.11,6.13,7.4,9.19,17.88,9.19,31.41Z"/><path class="cls-8" d="M496.91,567.65c-7.81-4.39-13.81-10.67-17.99-18.85-4.19-8.18-6.28-17.86-6.28-29.05v-40.11c0-11.19,2.09-20.88,6.28-29.05,4.19-8.18,10.19-14.48,17.99-18.9,7.81-4.42,17.01-6.63,27.6-6.63,8.78,0,16.74,1.88,23.88,5.63,7.14,3.75,13.07,9.17,17.79,16.24,4.72,7.07,7.96,15.43,9.7,25.08h-24.73c-1.21-4.69-3.12-8.8-5.73-12.32-2.61-3.52-5.71-6.21-9.3-8.09-3.59-1.88-7.46-2.81-11.61-2.81-5.56,0-10.37,1.26-14.43,3.77-4.06,2.51-7.19,6.08-9.4,10.71-2.21,4.62-3.32,10.09-3.32,16.39v40.11c0,6.3,1.11,11.76,3.32,16.39,2.21,4.62,5.34,8.18,9.4,10.66,4.05,2.48,8.86,3.72,14.43,3.72,4.22,0,8.12-.9,11.71-2.71,3.58-1.81,6.68-4.46,9.3-7.94,2.61-3.48,4.49-7.67,5.63-12.57h24.73c-1.81,9.65-5.08,18.01-9.8,25.08-4.72,7.07-10.66,12.48-17.79,16.24-7.14,3.75-15.06,5.63-23.78,5.63-10.59,0-19.79-2.19-27.6-6.58Z"/><path class="cls-3" d="M697.15,509.39v63.33h-24.02v-63.22c0-6.24-1.67-11.06-5.02-14.48-3.35-3.41-8.12-5.13-14.28-5.13s-10.45,1.58-13.67,4.73c-3.21,3.15-4.82,7.61-4.82,13.38v64.73h-24.02v-146.16h24.02v56.02c2.75-4.48,6.02-8.04,9.8-10.68,4.79-3.35,10.44-5.02,16.94-5.02,11.13,0,19.75,3.69,25.88,11.11,6.14,7.4,9.2,17.88,9.2,31.41Z"/><path class="cls-6" d="M812.05,484.71c-3.32-5.79-8.13-10.21-14.42-13.27-6.31-3.05-13.87-4.56-22.72-4.56-8.11,0-15.48,1.32-22.12,3.96s-12,6.35-16.08,11.11l15.98,13.47c3.08-2.27,6.58-4.05,10.46-5.32,3.88-1.28,7.85-1.92,11.86-1.92,6.31,0,11.18,1.61,14.64,4.82,3.45,3.22,5.18,7.74,5.18,13.58v4.42h-27.05c-12.06,0-21.11,2.58-27.14,7.74-6.04,5.16-9.05,12.91-9.05,23.22,0,10.86,2.98,18.94,8.95,24.27,5.95,5.33,14.94,8,26.94,8,4.75,0,9.14-.55,13.16-1.66,4.02-1.11,7.46-2.76,10.31-4.98,1.54-1.2,2.84-2.56,3.87-4.08v9.2h22.21v-67.05c0-8.18-1.66-15.16-4.98-20.96ZM789.22,552.32c-3.72,1.67-9.39,2.51-17.04,2.51-6.24,0-10.89-1.05-13.98-3.16-3.08-2.11-4.62-5.34-4.62-9.69s1.19-7.25,3.58-9.25c2.38-2.01,5.94-3.02,10.71-3.02h26.94v14.78c0,3.55-1.86,6.16-5.59,7.85Z"/><path class="cls-1" d="M883.21,489.39v52.87c0,2.55.51,4.51,1.51,5.88,1.01,1.38,2.48,2.06,4.42,2.06h8.35v23.02h-12.87c-8.79,0-15.21-2.33-19.31-6.99-4.08-4.66-6.13-11.54-6.13-20.66v-56.19h-10.75v-21.01h10.75v-30.36h24.02v30.36h14.28v21.01h-14.28Z"/></g><g id="Buble_Bottom"><path class="cls-5" d="M689.41,740.74c-35.86,0-71.72.05-107.58-.02-19.51-.04-33.33-11.83-33.88-31.01-.83-29.01-.79-58.07-.01-87.08.49-18.15,12.52-28.6,30.49-28.61,53.43-.05,106.87-.04,160.3-.01,20.64.01,31.67,10.61,32.14,31.3.35,15.05-.47,30.14.47,45.14.34,5.36,3.16,11.62,6.89,15.52,10.36,10.87,22.36,20.21,32.49,31.27,3.44,3.75,5.43,11.53,3.97,16.18-1.1,3.53-8.69,7.02-13.45,7.09-37.27.57-74.55.32-111.83.32,0-.03,0-.06,0-.09ZM743.38,648.61c1.02-29.81.26-29.84-29.68-29.84-41.99,0-83.98.21-125.96-.15-9.55-.08-13.43,2.53-13.14,12.78.68,23.65.63,47.35.06,71.01-.23,9.82,3.84,12.3,12.76,12.27,58.83-.22,117.66-.11,179.07-.11-24.3-18.08-23.96-41.56-23.12-65.95Z"/><circle class="cls-13" cx="624.71" cy="667.06" r="14.12"/><circle class="cls-11" cx="661.18" cy="667.06" r="14.12"/><circle class="cls-7" cx="697.65" cy="667.06" r="14.12"/></g><g id="Buble_Top"><path class="cls-2" d="M416.87,406.83c-69.97,0-139.94.04-209.9-.07-5.79.3-14.02.3-16.49-6.12-3.18-8.28,1.39-14.28,7.44-19.67,10.44-9.28,21.01-18.49,30.61-28.6,3.45-3.64,5.7-9.71,5.99-14.81.86-15.37.15-30.82.66-46.22.62-18.71,13.08-30.73,31.6-30.74,120.18-.06,240.36-.06,360.54,0,19.05,0,31.63,12.36,31.81,31.5.27,27.61.3,55.23.07,82.84-.18,21.71-10.73,31.88-32.41,31.89-69.97.02-139.94,0-209.9,0ZM236.47,382.35c3.05.3,8.32.14,10.36.14,124.89.03,249.79-.03,374.68.14,8.45.01,11.46-3.23,11.38-11.43-.24-23.31,0-46.63,0-69.95,0-14.87-.21-15.06-14.96-15.06-92.24,0-184.47-.02-276.71,0-22.59,0-45.18.21-67.77.12-8.01-.03-11.97,3.11-11.5,11.52.46,8.22.09,16.5.54,24.72,1.19,21.8-.68,42.32-21.22,55.85-.49.33-2.45,1.59-4.8,3.94Z"/><rect class="cls-10" x="291.76" y="321.18" width="311.76" height="27.06" rx="11.5" ry="11.5"/></g></svg>